<svg width="22" height="22" viewBox="0 0 22 22" fill="none" xmlns="http://www.w3.org/2000/svg">
<circle cx="10.8781" cy="10.8781" r="10.8781" fill="#2962F6"/>
<path d="M13.3203 12.0372L13.0284 11.7453C11.4664 10.1833 9.90436 8.62127 8.34213 7.05904C8.0261 6.74301 7.6527 6.67379 7.27975 6.84638C6.92046 7.01532 6.72328 7.32452 6.77565 7.69838C6.8227 7.96849 6.95014 8.21814 7.14132 8.41468C8.65178 9.95247 10.1818 11.4707 11.706 12.9948L11.9947 13.2835C11.9015 13.2994 11.8076 13.3104 11.7133 13.3163C11.1021 13.319 10.4906 13.3131 9.87992 13.3209C9.39632 13.3263 9.06253 13.6592 9.05615 14.1219C9.04978 14.6264 9.3526 14.9648 9.85852 14.9679C11.2641 14.977 12.6689 14.9781 14.073 14.9711C14.6408 14.9679 14.9605 14.661 14.971 14.0995C14.9968 12.7058 15.0121 11.3119 15.017 9.91786C15.0188 9.40693 14.6864 9.10639 14.1786 9.11049C13.6996 9.11504 13.3845 9.42287 13.3699 9.91923C13.3544 10.5085 13.353 11.0982 13.3444 11.6879C13.3426 11.7808 13.3307 11.8719 13.3203 12.0372Z" fill="white"/>
</svg>
