<svg width="157" height="54" viewBox="0 0 157 54" fill="none" xmlns="http://www.w3.org/2000/svg">
<g clip-path="url(#clip0_533_1859)">
<mask id="mask0_533_1859" style="mask-type:luminance" maskUnits="userSpaceOnUse" x="0" y="0" width="157" height="54">
<path d="M157 0H0V54H157V0Z" fill="white"/>
</mask>
<g mask="url(#mask0_533_1859)">
<path d="M13.8486 6.09043C23.1902 2.69037 33.5193 7.50693 36.9194 16.8486C39.5999 24.2131 37.1729 32.1906 31.4487 36.9037L33.1675 41.626L21.8912 45.7303L20.1724 41.008C12.7579 41.0769 5.77091 36.5258 3.09043 29.1613C-0.30963 19.8197 4.50693 9.4905 13.8486 6.09043Z" fill="#2962F6"/>
<path d="M21.4771 23.445L24.9502 24.7439L17.2556 35.3046L18.2282 24.0223L14.7551 22.7234L22.4497 12.1627L21.4771 23.445Z" fill="white"/>
<path d="M34.1405 43.6715C34.5703 43.5629 35.021 43.795 35.1759 44.2206C35.3412 44.6747 35.1071 45.1768 34.653 45.3421L23.1417 49.5318C22.6876 49.6971 22.1855 49.463 22.0202 49.0088C21.855 48.5547 22.0891 48.0526 22.5432 47.8873C22.0891 48.0526 21.587 47.8185 21.4217 47.3644C21.2564 46.9103 21.4906 46.4082 21.9447 46.2429C21.4906 46.4082 20.9884 46.174 20.8232 45.7199C20.6579 45.2658 20.892 44.7637 21.3461 44.5984C20.892 44.7637 20.3899 44.5296 20.2246 44.0755C20.0594 43.6214 20.2935 43.1192 20.7476 42.954L32.2588 38.7642C32.7129 38.5989 33.215 38.8331 33.3803 39.2872C33.5456 39.7413 33.3115 40.2434 32.8574 40.4087C33.3115 40.2434 33.8136 40.4775 33.9789 40.9316C34.1441 41.3857 33.91 41.8879 33.4559 42.0531L33.542 42.027C33.9718 41.9184 34.4225 42.1505 34.5774 42.5761C34.7427 43.0302 34.5085 43.5323 34.0544 43.6976L34.1405 43.6715Z" fill="#1A202C"/>
<path d="M57.2105 12.2868C53.5942 33.3102 53.5942 33.0268 53.6498 33.3102C53.7055 33.5368 53.8724 33.7068 54.0393 33.7635C54.3175 33.9335 54.0393 33.8768 63.8869 33.8768C64.4432 33.8768 64.9996 33.3668 65.1109 32.8002L68.6716 12.1735C68.8941 11.0968 69.8399 10.2468 70.897 10.2468H79.2424C80.2995 10.2468 81.0784 11.1535 80.9115 12.2868L76.9614 35.1802C76.0712 40.2235 71.3977 44.2468 66.4461 44.2468H48.5313C43.5797 44.2468 40.1859 40.1102 41.076 35.0102L45.0262 12.1735C45.2488 11.0968 46.1946 10.2468 47.2517 10.2468H55.5414C56.6542 10.2468 57.4331 11.1535 57.2105 12.2868Z" fill="black"/>
<path d="M116.413 33.5968L136.213 18.7468H119.863C118.563 18.7468 117.663 17.6468 117.913 16.3468L118.763 11.4968C118.963 10.2468 120.163 9.24683 121.413 9.24683H151.613C152.963 9.24683 153.813 10.3468 153.613 11.6468L152.863 15.9468C152.563 17.6468 151.513 19.1968 150.063 20.2968L130.313 35.1968H146.963C148.263 35.1968 149.163 36.2468 148.913 37.5468L148.013 42.7468C147.763 43.9968 146.613 44.9968 145.363 44.9968H114.813C113.513 44.9968 112.613 43.8968 112.863 42.5968L113.663 37.9968C113.963 36.2968 114.963 34.6968 116.413 33.5968Z" fill="black"/>
<path d="M77.9758 42.5968L83.4258 11.5468C83.6758 10.2468 84.8758 9.24683 86.1258 9.24683H114.826C116.126 9.24683 117.026 10.3468 116.776 11.6468L115.926 16.4968C115.726 17.7468 114.526 18.7468 113.276 18.7468H93.4258L92.7758 22.4468H108.476C109.776 22.4468 110.676 23.4968 110.426 24.7968L109.626 29.2468C109.426 30.4968 108.226 31.4968 106.976 31.4968H91.1758L90.5258 35.1968H110.176C111.476 35.1968 112.376 36.2468 112.126 37.5468L111.226 42.7468C110.976 43.9968 109.826 44.9968 108.576 44.9968H79.9758C78.6258 44.9968 77.7258 43.8968 77.9758 42.5968Z" fill="black"/>
</g>
</g>
<defs>
<clipPath id="clip0_533_1859">
<rect width="157" height="54" fill="white"/>
</clipPath>
</defs>
</svg>
