<svg width="24" height="24" viewBox="0 0 24 24" fill="none" xmlns="http://www.w3.org/2000/svg">
<rect width="24" height="24" rx="2" fill="#2962F6"/>
<path d="M9.60645 3.41992C13.2382 2.11141 17.2541 3.96459 18.5762 7.55957C19.6183 10.3938 18.6747 13.4644 16.4492 15.2783L16.7188 16.0107L16.7646 15.9951C16.9411 15.9317 17.136 16.0216 17.2002 16.1963C17.2642 16.371 17.1735 16.5644 16.9971 16.6279C17.1736 16.5643 17.3684 16.6543 17.4326 16.8291C17.4967 17.0039 17.406 17.1972 17.2295 17.2607L17.2627 17.25C17.4298 17.2082 17.6058 17.2981 17.666 17.4619C17.73 17.6366 17.6383 17.83 17.4619 17.8936L17.4961 17.8838C17.6632 17.8421 17.8382 17.931 17.8984 18.0947C17.9626 18.2694 17.8717 18.4627 17.6953 18.5264L13.2197 20.1387C13.0432 20.2023 12.8475 20.1122 12.7832 19.9375C12.7191 19.7627 12.8108 19.5694 12.9873 19.5059C12.8108 19.5694 12.6151 19.4793 12.5508 19.3047C12.4866 19.13 12.5776 18.9368 12.7539 18.873C12.5775 18.9364 12.3827 18.8463 12.3184 18.6719C12.2541 18.4971 12.345 18.3039 12.5215 18.2402C12.3451 18.3037 12.1504 18.2135 12.0859 18.0391C12.0217 17.8643 12.1125 17.6711 12.2891 17.6074L12.334 17.5908L12.0654 16.8584C9.1828 16.8849 6.46602 15.133 5.42383 12.2988C4.10194 8.70364 5.97461 4.72854 9.60645 3.41992ZM9.95898 9.82129L11.3096 10.3213L10.9307 14.6631L13.9229 10.5986L12.5723 10.0986L12.9502 5.75684L9.95898 9.82129Z" fill="white"/>
</svg>
