<svg width="22" height="22" viewBox="0 0 22 22" fill="none" xmlns="http://www.w3.org/2000/svg">
<circle cx="10.8781" cy="10.8781" r="10.8781" transform="matrix(1 0 0 -1 0 21.7561)" fill="#2962F6"/>
<path d="M13.3203 9.71894L13.0284 10.0108C11.4664 11.5728 9.90436 13.1348 8.34213 14.6971C8.0261 15.0131 7.6527 15.0823 7.27975 14.9097C6.92046 14.7408 6.72328 14.4316 6.77565 14.0577C6.8227 13.7876 6.95014 13.538 7.14132 13.3414C8.65178 11.8036 10.1818 10.2854 11.706 8.76129L11.9947 8.47259C11.9015 8.45666 11.8076 8.44572 11.7133 8.4398C11.1021 8.43707 10.4906 8.44299 9.87992 8.43525C9.39632 8.42978 9.06253 8.09691 9.05615 7.63425C9.04978 7.1297 9.3526 6.79135 9.85852 6.78817C11.2641 6.77906 12.6689 6.778 14.073 6.78498C14.6408 6.78817 14.9605 7.09509 14.971 7.65656C14.9968 9.0503 15.0121 10.4442 15.017 11.8382C15.0188 12.3492 14.6864 12.6497 14.1786 12.6456C13.6996 12.6411 13.3845 12.3332 13.3699 11.8369C13.3544 11.2476 13.353 10.6579 13.3444 10.0682C13.3426 9.97532 13.3307 9.88424 13.3203 9.71894Z" fill="white"/>
</svg>
